<svg width="124" height="155" viewBox="0 0 124 155" fill="none" xmlns="http://www.w3.org/2000/svg">
<circle cx="62" cy="77" r="62" fill="#EC362D"/>
<path opacity="0.9" d="M52.8182 97.8182V97.2727C52.8788 91.4848 53.4848 86.8788 54.6364 83.4545C55.7879 80.0303 57.4242 77.2576 59.5455 75.1364C61.6667 73.0152 64.2121 71.0606 67.1818 69.2727C68.9697 68.1818 70.5758 66.8939 72 65.4091C73.4242 63.8939 74.5455 62.1515 75.3636 60.1818C76.2121 58.2121 76.6364 56.0303 76.6364 53.6364C76.6364 50.6667 75.9394 48.0909 74.5455 45.9091C73.1515 43.7273 71.2879 42.0455 68.9545 40.8636C66.6212 39.6818 64.0303 39.0909 61.1818 39.0909C58.697 39.0909 56.303 39.6061 54 40.6364C51.697 41.6667 49.7727 43.2879 48.2273 45.5C46.6818 47.7121 45.7879 50.6061 45.5455 54.1818H34.0909C34.3333 49.0303 35.6667 44.6212 38.0909 40.9545C40.5455 37.2879 43.7727 34.4848 47.7727 32.5454C51.803 30.6061 56.2727 29.6364 61.1818 29.6364C66.5152 29.6364 71.1515 30.697 75.0909 32.8182C79.0606 34.9394 82.1212 37.8485 84.2727 41.5454C86.4545 45.2424 87.5455 49.4545 87.5455 54.1818C87.5455 57.5151 87.0303 60.5303 86 63.2273C85 65.9242 83.5455 68.3333 81.6364 70.4545C79.7576 72.5758 77.4849 74.4545 74.8182 76.0909C72.1515 77.7576 70.0152 79.5152 68.4091 81.3636C66.803 83.1818 65.6364 85.3485 64.9091 87.8636C64.1818 90.3788 63.7879 93.5152 63.7273 97.2727V97.8182H52.8182ZM58.6364 124.727C56.3939 124.727 54.4697 123.924 52.8636 122.318C51.2576 120.712 50.4545 118.788 50.4545 116.545C50.4545 114.303 51.2576 112.379 52.8636 110.773C54.4697 109.167 56.3939 108.364 58.6364 108.364C60.8788 108.364 62.803 109.167 64.4091 110.773C66.0152 112.379 66.8182 114.303 66.8182 116.545C66.8182 118.03 66.4394 119.394 65.6818 120.636C64.9545 121.879 63.9697 122.879 62.7273 123.636C61.5152 124.364 60.1515 124.727 58.6364 124.727Z" fill="white"/>
</svg>
